# xmcd
#
# Track frame offsets:
#	150
#	14734
#	30920
#	50802
#	72080
#	89815
#	101377
#	121162
#	135840
#	161777
#	184820
#	201627
#	223285
#	241675
#	264917
#	286587
#	298457
#
# Disc length: 4218 seconds
#
# Revision: 2
# Processed by: cddbd v1.5.2PL0 Copyright (c) Steve Scherf et al.
# Submitted via: EasyCDDAExtractor 15.2.5.1
#
DISCID=02107811
DTITLE=梅艷芳 - 情歌2
DYEAR=1998
DGENRE=
TTITLE0=梅艷芳 - 玫瑰玫瑰我愛你
TTITLE1=梅艷芳 - 慾望野獸街
TTITLE2=梅艷芳 - 夜蛇
TTITLE3=梅艷芳 - 封面女郎
TTITLE4=梅艷芳 - Stand by Me
TTITLE5=梅艷芳 - 紗籠女郎
TTITLE6=梅艷芳 - 愛將
TTITLE7=梅艷芳 - 夢伴
TTITLE8=梅艷芳 - 將冰山劈開
TTITLE9=梅艷芳 - 緋聞中的女人
TTITLE10=梅艷芳 - 烈燄紅唇
TTITLE11=梅艷芳 - 壞女孩
TTITLE12=梅艷芳 - 似火探戈
TTITLE13=梅艷芳 - 妖女
TTITLE14=梅艷芳 - 黑夜的豹
TTITLE15=梅艷芳 - 飛躍舞台
TTITLE16=璇睁饯?
EXTD=
EXTT0=
EXTT1=
EXTT2=
EXTT3=
EXTT4=
EXTT5=
EXTT6=
EXTT7=
EXTT8=
EXTT9=
EXTT10=
EXTT11=
EXTT12=
EXTT13=
EXTT14=
EXTT15=
EXTT16=
PLAYORDER=
